<mxfile host="app.diagrams.net" modified="2020-12-26T12:06:22.956Z" agent="5.0 (Windows)" etag="kWiX7rtWD4TNDzag0gSV" version="13.10.7" type="github">
  <diagram name="Page-1" id="ff44883e-f642-bcb2-894b-16b3d25a3f0b">
    <mxGraphModel dx="8488.5" dy="4809" grid="1" gridSize="10" guides="1" tooltips="1" connect="1" arrows="1" fold="1" page="1" pageScale="1.5" pageWidth="1169" pageHeight="826" background="#ffffff" math="0" shadow="0">
      <root>
        <mxCell id="0" style=";html=1;" />
        <mxCell id="1" style=";html=1;" parent="0" />
        <mxCell id="bCoGWlUz9lbHnmUnVM0s-86" value="" style="ellipse;whiteSpace=wrap;html=1;rounded=0;shadow=1;strokeColor=#666666;strokeWidth=4;fontSize=30;align=center;fillColor=#f5f5f5;" vertex="1" parent="1">
          <mxGeometry x="2380" y="310" width="220" height="220" as="geometry" />
        </mxCell>
        <object label="" id="bCoGWlUz9lbHnmUnVM0s-93">
          <mxCell style="edgeStyle=orthogonalEdgeStyle;rounded=0;orthogonalLoop=1;jettySize=auto;html=1;exitX=1;exitY=0.5;exitDx=0;exitDy=0;" edge="1" parent="1" source="bCoGWlUz9lbHnmUnVM0s-88">
            <mxGeometry relative="1" as="geometry">
              <mxPoint x="2460" y="260" as="targetPoint" />
            </mxGeometry>
          </mxCell>
        </object>
        <mxCell id="bCoGWlUz9lbHnmUnVM0s-88" value="" style="ellipse;whiteSpace=wrap;html=1;rounded=0;shadow=1;strokeColor=#666666;strokeWidth=4;fontSize=30;align=center;fillColor=#f5f5f5;" vertex="1" parent="1">
          <mxGeometry x="-350" y="-360" width="80" height="80" as="geometry" />
        </mxCell>
        <mxCell id="bCoGWlUz9lbHnmUnVM0s-97" style="edgeStyle=orthogonalEdgeStyle;rounded=0;orthogonalLoop=1;jettySize=auto;html=1;exitX=1;exitY=0.5;exitDx=0;exitDy=0;" edge="1" parent="1" source="bCoGWlUz9lbHnmUnVM0s-92">
          <mxGeometry relative="1" as="geometry">
            <mxPoint x="2470" y="640" as="targetPoint" />
          </mxGeometry>
        </mxCell>
        <mxCell id="bCoGWlUz9lbHnmUnVM0s-92" value="" style="ellipse;whiteSpace=wrap;html=1;rounded=0;shadow=1;strokeColor=#666666;strokeWidth=4;fontSize=30;align=center;fillColor=#f5f5f5;" vertex="1" parent="1">
          <mxGeometry x="960" y="1610" width="80" height="80" as="geometry" />
        </mxCell>
        <mxCell id="bCoGWlUz9lbHnmUnVM0s-102" style="edgeStyle=orthogonalEdgeStyle;rounded=0;orthogonalLoop=1;jettySize=auto;html=1;exitX=1;exitY=0.5;exitDx=0;exitDy=0;entryX=0.5;entryY=0;entryDx=0;entryDy=0;" edge="1" parent="1" source="bCoGWlUz9lbHnmUnVM0s-99" target="bCoGWlUz9lbHnmUnVM0s-88">
          <mxGeometry relative="1" as="geometry" />
        </mxCell>
        <mxCell id="bCoGWlUz9lbHnmUnVM0s-99" value="" style="ellipse;whiteSpace=wrap;html=1;rounded=0;shadow=1;strokeColor=#666666;strokeWidth=4;fontSize=30;align=center;fillColor=#f5f5f5;" vertex="1" parent="1">
          <mxGeometry x="-680" y="-500" width="80" height="80" as="geometry" />
        </mxCell>
        <mxCell id="bCoGWlUz9lbHnmUnVM0s-103" style="edgeStyle=orthogonalEdgeStyle;rounded=0;orthogonalLoop=1;jettySize=auto;html=1;exitX=1;exitY=0.5;exitDx=0;exitDy=0;entryX=0;entryY=0.5;entryDx=0;entryDy=0;" edge="1" parent="1" source="bCoGWlUz9lbHnmUnVM0s-100" target="bCoGWlUz9lbHnmUnVM0s-88">
          <mxGeometry relative="1" as="geometry" />
        </mxCell>
        <mxCell id="bCoGWlUz9lbHnmUnVM0s-100" value="" style="ellipse;whiteSpace=wrap;html=1;rounded=0;shadow=1;strokeColor=#666666;strokeWidth=4;fontSize=30;align=center;fillColor=#f5f5f5;" vertex="1" parent="1">
          <mxGeometry x="-680" y="-360" width="80" height="80" as="geometry" />
        </mxCell>
        <mxCell id="bCoGWlUz9lbHnmUnVM0s-104" style="edgeStyle=orthogonalEdgeStyle;rounded=0;orthogonalLoop=1;jettySize=auto;html=1;exitX=1;exitY=0.5;exitDx=0;exitDy=0;entryX=0.5;entryY=1;entryDx=0;entryDy=0;" edge="1" parent="1" source="bCoGWlUz9lbHnmUnVM0s-101" target="bCoGWlUz9lbHnmUnVM0s-88">
          <mxGeometry relative="1" as="geometry" />
        </mxCell>
        <mxCell id="bCoGWlUz9lbHnmUnVM0s-101" value="" style="ellipse;whiteSpace=wrap;html=1;rounded=0;shadow=1;strokeColor=#666666;strokeWidth=4;fontSize=30;align=center;fillColor=#f5f5f5;" vertex="1" parent="1">
          <mxGeometry x="-680" y="-220" width="80" height="80" as="geometry" />
        </mxCell>
        <mxCell id="bCoGWlUz9lbHnmUnVM0s-114" style="edgeStyle=orthogonalEdgeStyle;rounded=0;orthogonalLoop=1;jettySize=auto;html=1;exitX=1;exitY=0.5;exitDx=0;exitDy=0;" edge="1" parent="1" source="bCoGWlUz9lbHnmUnVM0s-106">
          <mxGeometry relative="1" as="geometry">
            <mxPoint x="2320" y="400" as="targetPoint" />
          </mxGeometry>
        </mxCell>
        <mxCell id="bCoGWlUz9lbHnmUnVM0s-106" value="" style="ellipse;whiteSpace=wrap;html=1;rounded=0;shadow=1;strokeColor=#666666;strokeWidth=4;fontSize=30;align=center;fillColor=#f5f5f5;" vertex="1" parent="1">
          <mxGeometry x="-740" y="360" width="80" height="80" as="geometry" />
        </mxCell>
        <mxCell id="bCoGWlUz9lbHnmUnVM0s-117" style="edgeStyle=orthogonalEdgeStyle;rounded=0;orthogonalLoop=1;jettySize=auto;html=1;exitX=1;exitY=0.5;exitDx=0;exitDy=0;entryX=0;entryY=0.5;entryDx=0;entryDy=0;" edge="1" parent="1" source="bCoGWlUz9lbHnmUnVM0s-109" target="bCoGWlUz9lbHnmUnVM0s-111">
          <mxGeometry relative="1" as="geometry" />
        </mxCell>
        <mxCell id="bCoGWlUz9lbHnmUnVM0s-109" value="" style="ellipse;whiteSpace=wrap;html=1;rounded=0;shadow=1;strokeColor=#666666;strokeWidth=4;fontSize=30;align=center;fillColor=#f5f5f5;" vertex="1" parent="1">
          <mxGeometry x="-1580" y="360" width="80" height="80" as="geometry" />
        </mxCell>
        <mxCell id="bCoGWlUz9lbHnmUnVM0s-111" value="" style="ellipse;whiteSpace=wrap;html=1;rounded=0;shadow=1;strokeColor=#666666;strokeWidth=4;fontSize=30;align=center;fillColor=#f5f5f5;" vertex="1" parent="1">
          <mxGeometry x="-1320" y="360" width="80" height="80" as="geometry" />
        </mxCell>
        <mxCell id="bCoGWlUz9lbHnmUnVM0s-120" style="edgeStyle=orthogonalEdgeStyle;rounded=0;orthogonalLoop=1;jettySize=auto;html=1;exitX=1;exitY=0.5;exitDx=0;exitDy=0;entryX=0;entryY=0.5;entryDx=0;entryDy=0;" edge="1" parent="1" source="bCoGWlUz9lbHnmUnVM0s-113" target="bCoGWlUz9lbHnmUnVM0s-106">
          <mxGeometry relative="1" as="geometry" />
        </mxCell>
        <mxCell id="bCoGWlUz9lbHnmUnVM0s-113" value="" style="ellipse;whiteSpace=wrap;html=1;rounded=0;shadow=1;strokeColor=#666666;strokeWidth=4;fontSize=30;align=center;fillColor=#f5f5f5;" vertex="1" parent="1">
          <mxGeometry x="-1060" y="360" width="80" height="80" as="geometry" />
        </mxCell>
        <mxCell id="bCoGWlUz9lbHnmUnVM0s-116" style="edgeStyle=orthogonalEdgeStyle;rounded=0;orthogonalLoop=1;jettySize=auto;html=1;exitX=1;exitY=0.5;exitDx=0;exitDy=0;entryX=0.5;entryY=1;entryDx=0;entryDy=0;" edge="1" parent="1" source="bCoGWlUz9lbHnmUnVM0s-115" target="bCoGWlUz9lbHnmUnVM0s-106">
          <mxGeometry relative="1" as="geometry" />
        </mxCell>
        <mxCell id="bCoGWlUz9lbHnmUnVM0s-115" value="" style="ellipse;whiteSpace=wrap;html=1;rounded=0;shadow=1;strokeColor=#666666;strokeWidth=4;fontSize=30;align=center;fillColor=#f5f5f5;" vertex="1" parent="1">
          <mxGeometry x="-1070" y="640" width="80" height="80" as="geometry" />
        </mxCell>
        <mxCell id="bCoGWlUz9lbHnmUnVM0s-118" style="edgeStyle=orthogonalEdgeStyle;rounded=0;orthogonalLoop=1;jettySize=auto;html=1;exitX=1;exitY=0.5;exitDx=0;exitDy=0;entryX=0;entryY=0.5;entryDx=0;entryDy=0;" edge="1" parent="1">
          <mxGeometry relative="1" as="geometry">
            <mxPoint x="-1240.000000000026" y="399.16999999999996" as="sourcePoint" />
            <mxPoint x="-1060" y="399.16999999999996" as="targetPoint" />
          </mxGeometry>
        </mxCell>
        <mxCell id="bCoGWlUz9lbHnmUnVM0s-122" style="edgeStyle=orthogonalEdgeStyle;rounded=0;orthogonalLoop=1;jettySize=auto;html=1;exitX=1;exitY=0.5;exitDx=0;exitDy=0;entryX=0;entryY=0.5;entryDx=0;entryDy=0;" edge="1" parent="1" source="bCoGWlUz9lbHnmUnVM0s-121" target="bCoGWlUz9lbHnmUnVM0s-92">
          <mxGeometry relative="1" as="geometry" />
        </mxCell>
        <mxCell id="bCoGWlUz9lbHnmUnVM0s-121" value="" style="ellipse;whiteSpace=wrap;html=1;rounded=0;shadow=1;strokeColor=#666666;strokeWidth=4;fontSize=30;align=center;fillColor=#f5f5f5;" vertex="1" parent="1">
          <mxGeometry x="680" y="1610" width="80" height="80" as="geometry" />
        </mxCell>
        <mxCell id="bCoGWlUz9lbHnmUnVM0s-124" style="edgeStyle=orthogonalEdgeStyle;rounded=0;orthogonalLoop=1;jettySize=auto;html=1;exitX=1;exitY=0.5;exitDx=0;exitDy=0;entryX=0.5;entryY=1;entryDx=0;entryDy=0;" edge="1" parent="1" source="bCoGWlUz9lbHnmUnVM0s-123" target="bCoGWlUz9lbHnmUnVM0s-92">
          <mxGeometry relative="1" as="geometry" />
        </mxCell>
        <mxCell id="bCoGWlUz9lbHnmUnVM0s-123" value="" style="ellipse;whiteSpace=wrap;html=1;rounded=0;shadow=1;strokeColor=#666666;strokeWidth=4;fontSize=30;align=center;fillColor=#f5f5f5;" vertex="1" parent="1">
          <mxGeometry x="680" y="1819" width="80" height="80" as="geometry" />
        </mxCell>
        <mxCell id="bCoGWlUz9lbHnmUnVM0s-128" style="edgeStyle=orthogonalEdgeStyle;rounded=0;orthogonalLoop=1;jettySize=auto;html=1;exitX=1;exitY=0.5;exitDx=0;exitDy=0;" edge="1" parent="1" source="bCoGWlUz9lbHnmUnVM0s-125">
          <mxGeometry relative="1" as="geometry">
            <mxPoint x="2290" y="540" as="targetPoint" />
            <Array as="points">
              <mxPoint x="1400" y="930" />
              <mxPoint x="1400" y="540" />
              <mxPoint x="2250" y="540" />
            </Array>
          </mxGeometry>
        </mxCell>
        <mxCell id="bCoGWlUz9lbHnmUnVM0s-125" value="" style="ellipse;whiteSpace=wrap;html=1;rounded=0;shadow=1;strokeColor=#666666;strokeWidth=4;fontSize=30;align=center;fillColor=#f5f5f5;" vertex="1" parent="1">
          <mxGeometry x="-900" y="890" width="80" height="80" as="geometry" />
        </mxCell>
        <mxCell id="bCoGWlUz9lbHnmUnVM0s-143" style="edgeStyle=orthogonalEdgeStyle;rounded=0;orthogonalLoop=1;jettySize=auto;html=1;exitX=1;exitY=0.5;exitDx=0;exitDy=0;" edge="1" parent="1" source="bCoGWlUz9lbHnmUnVM0s-132">
          <mxGeometry relative="1" as="geometry">
            <mxPoint x="2360" y="250" as="targetPoint" />
          </mxGeometry>
        </mxCell>
        <mxCell id="bCoGWlUz9lbHnmUnVM0s-132" value="" style="ellipse;whiteSpace=wrap;html=1;rounded=0;shadow=1;strokeColor=#666666;strokeWidth=4;fontSize=30;align=center;fillColor=#f5f5f5;" vertex="1" parent="1">
          <mxGeometry x="-730" y="40" width="80" height="80" as="geometry" />
        </mxCell>
        <mxCell id="bCoGWlUz9lbHnmUnVM0s-140" style="edgeStyle=orthogonalEdgeStyle;rounded=0;orthogonalLoop=1;jettySize=auto;html=1;exitX=1;exitY=0.5;exitDx=0;exitDy=0;" edge="1" parent="1" source="bCoGWlUz9lbHnmUnVM0s-133">
          <mxGeometry relative="1" as="geometry">
            <mxPoint x="2410" y="620" as="targetPoint" />
            <Array as="points">
              <mxPoint x="-796" y="1400" />
              <mxPoint x="2410" y="1400" />
              <mxPoint x="2410" y="650" />
            </Array>
          </mxGeometry>
        </mxCell>
        <mxCell id="bCoGWlUz9lbHnmUnVM0s-133" value="" style="ellipse;whiteSpace=wrap;html=1;rounded=0;shadow=1;strokeColor=#666666;strokeWidth=4;fontSize=30;align=center;fillColor=#f5f5f5;" vertex="1" parent="1">
          <mxGeometry x="-900" y="1370" width="80" height="80" as="geometry" />
        </mxCell>
        <mxCell id="bCoGWlUz9lbHnmUnVM0s-139" style="edgeStyle=orthogonalEdgeStyle;rounded=0;orthogonalLoop=1;jettySize=auto;html=1;exitX=1;exitY=0.5;exitDx=0;exitDy=0;" edge="1" parent="1" source="bCoGWlUz9lbHnmUnVM0s-134">
          <mxGeometry relative="1" as="geometry">
            <mxPoint x="2340" y="640" as="targetPoint" />
          </mxGeometry>
        </mxCell>
        <mxCell id="bCoGWlUz9lbHnmUnVM0s-134" value="" style="ellipse;whiteSpace=wrap;html=1;rounded=0;shadow=1;strokeColor=#666666;strokeWidth=4;fontSize=30;align=center;fillColor=#f5f5f5;" vertex="1" parent="1">
          <mxGeometry x="-890" y="1150" width="80" height="80" as="geometry" />
        </mxCell>
      </root>
    </mxGraphModel>
  </diagram>
</mxfile>
